<?xml version="1.0" encoding="iso-8859-1"?>
<!-- Uploaded to: SVG Repo, www.svgrepo.com, Generator: SVG Repo Mixer Tools -->
<svg fill="#000000" height="800px" width="800px" version="1.1" id="Layer_1" xmlns="http://www.w3.org/2000/svg" xmlns:xlink="http://www.w3.org/1999/xlink" 
	 viewBox="0 0 501.333 501.333" xml:space="preserve">
<g>
	<g>
		<path d="M337.6,163.2c-11.733-11.733-26.667-19.2-43.733-19.2c-14.933,0-29.867,6.4-41.6,17.067
			c-11.733-11.733-26.667-18.133-42.667-18.133c-36.267,0-64,32-66.133,74.667c-2.133,46.933,70.4,115.2,92.8,135.466
			c4.267,3.2,8.533,5.333,13.867,5.333c4.267,0,8.533-1.067,12.8-4.267c9.6-7.467,94.933-74.667,96-133.333
			C360,199.467,351.467,178.133,337.6,163.2z M251.2,310.4c-35.2-34.133-67.2-74.667-66.133-90.667
			c1.067-19.2,11.734-35.2,24.534-35.2c9.6,0,18.133,9.6,21.333,23.467c3.2,8.533,10.667,14.933,20.267,14.933
			c9.6,0,18.133-6.4,20.267-14.933c4.267-12.8,12.8-21.333,22.4-21.333c6.4,0,10.667,3.2,13.867,6.4c6.4,6.4,9.6,17.067,9.6,27.733
			C317.333,244.267,282.133,283.733,251.2,310.4z"/>
	</g>
</g>
<g>
	<g>
		<path d="M436.8,0H64.533C52.8,0,43.2,9.6,43.2,21.333V480c0,11.733,9.6,21.333,21.333,21.333h373.333
			c11.733,0,20.267-9.6,20.267-20.267V21.333C458.133,9.6,448.533,0,436.8,0z M416.533,459.733H85.867V41.6h330.667V459.733z"/>
	</g>
</g>
<g>
	<g>
		<path d="M136.001,67.2c-1.067-2.133-2.133-2.133-3.2-2.133h-1.067c-2.133,0-3.2,1.067-3.2,2.133l-16,38.4c0,0,0,1.067,0,2.133
			c0,1.067,0,1.067,1.067,2.133c-0.001,1.067-0.001,1.067,1.066,1.067c1.067,0,2.133-1.067,2.133-2.133l4.267-9.6H142.4l4.267,9.6
			c0,1.067,1.067,2.133,2.133,2.133c1.067,0,2.133,0,2.133-1.067c0-1.067,1.067-1.067,1.067-2.133c0-1.067,0-1.067,0-2.133
			L136.001,67.2z M124.266,93.867L132.8,73.6l8.533,20.267H124.266z"/>
	</g>
</g>
<g>
	<g>
		<path d="M386.666,390.4c0-1.067-1.067-1.067-2.133-1.067c-1.067,0-2.133,1.067-2.133,2.133l-4.267,9.6h-21.333l-3.199-9.6
			c0-1.067-1.067-2.133-2.133-2.133c-1.067,0-2.133,0-2.133,1.067s-1.067,1.067-1.067,2.133c0,1.067,0,1.067,0,2.133l16,38.4
			c1.067,2.133,2.133,2.133,3.2,2.133h1.067c2.133,0,3.2-1.067,3.2-2.133l16-38.4c0,0,0-1.067,0-2.133
			C387.733,391.467,387.733,391.467,386.666,390.4z M368.533,427.733L360,407.467h17.066L368.533,427.733z"/>
	</g>
</g>
</svg>